<mxfile host="app.diagrams.net" agent="Mozilla/5.0 (Windows NT 10.0; Win64; x64) AppleWebKit/537.36 (KHTML, like Gecko) Chrome/130.0.0.0 Safari/537.36" version="24.8.3">
  <diagram name="Page-1" id="8MqtT15N7sQvPAGygKqi">
    <mxGraphModel dx="1150" dy="350" grid="1" gridSize="10" guides="1" tooltips="1" connect="1" arrows="1" fold="1" page="1" pageScale="1" pageWidth="850" pageHeight="1100" math="0" shadow="0">
      <root>
        <mxCell id="0" />
        <mxCell id="1" parent="0" />
        <mxCell id="CQjiUJkjbMMS3iOZPv2z-1" value="" style="edgeStyle=orthogonalEdgeStyle;rounded=0;orthogonalLoop=1;jettySize=auto;html=1;" edge="1" parent="1" source="CQjiUJkjbMMS3iOZPv2z-2" target="CQjiUJkjbMMS3iOZPv2z-4">
          <mxGeometry relative="1" as="geometry" />
        </mxCell>
        <mxCell id="CQjiUJkjbMMS3iOZPv2z-2" value="Start" style="ellipse;whiteSpace=wrap;html=1;" vertex="1" parent="1">
          <mxGeometry x="365" y="20" width="115" height="40" as="geometry" />
        </mxCell>
        <mxCell id="CQjiUJkjbMMS3iOZPv2z-3" value="" style="edgeStyle=none;curved=1;rounded=0;orthogonalLoop=1;jettySize=auto;html=1;fontSize=12;startSize=8;endSize=8;" edge="1" parent="1" source="CQjiUJkjbMMS3iOZPv2z-4" target="CQjiUJkjbMMS3iOZPv2z-6">
          <mxGeometry relative="1" as="geometry" />
        </mxCell>
        <mxCell id="CQjiUJkjbMMS3iOZPv2z-4" value="int: n, e, i, num, count&lt;div&gt;e_dup = []&lt;div&gt;freq = {}&lt;/div&gt;&lt;/div&gt;" style="shape=hexagon;perimeter=hexagonPerimeter2;whiteSpace=wrap;html=1;fixedSize=1;" vertex="1" parent="1">
          <mxGeometry x="362.5" y="90" width="120" height="80" as="geometry" />
        </mxCell>
        <mxCell id="CQjiUJkjbMMS3iOZPv2z-5" value="" style="edgeStyle=orthogonalEdgeStyle;rounded=0;orthogonalLoop=1;jettySize=auto;html=1;" edge="1" parent="1" source="CQjiUJkjbMMS3iOZPv2z-6" target="CQjiUJkjbMMS3iOZPv2z-9">
          <mxGeometry relative="1" as="geometry" />
        </mxCell>
        <mxCell id="CQjiUJkjbMMS3iOZPv2z-6" value="input:&lt;div&gt;n&lt;/div&gt;" style="shape=parallelogram;perimeter=parallelogramPerimeter;whiteSpace=wrap;html=1;fixedSize=1;" vertex="1" parent="1">
          <mxGeometry x="360" y="200" width="120" height="40" as="geometry" />
        </mxCell>
        <mxCell id="CQjiUJkjbMMS3iOZPv2z-7" value="" style="edgeStyle=orthogonalEdgeStyle;rounded=0;orthogonalLoop=1;jettySize=auto;html=1;" edge="1" parent="1" source="CQjiUJkjbMMS3iOZPv2z-9" target="CQjiUJkjbMMS3iOZPv2z-11">
          <mxGeometry relative="1" as="geometry" />
        </mxCell>
        <mxCell id="CQjiUJkjbMMS3iOZPv2z-41" value="" style="edgeStyle=orthogonalEdgeStyle;rounded=0;orthogonalLoop=1;jettySize=auto;html=1;" edge="1" parent="1" source="CQjiUJkjbMMS3iOZPv2z-9" target="CQjiUJkjbMMS3iOZPv2z-40">
          <mxGeometry relative="1" as="geometry" />
        </mxCell>
        <mxCell id="CQjiUJkjbMMS3iOZPv2z-9" value="i &amp;lt; n" style="rhombus;whiteSpace=wrap;html=1;" vertex="1" parent="1">
          <mxGeometry x="380" y="270" width="80" height="80" as="geometry" />
        </mxCell>
        <mxCell id="CQjiUJkjbMMS3iOZPv2z-10" value="" style="edgeStyle=orthogonalEdgeStyle;rounded=0;orthogonalLoop=1;jettySize=auto;html=1;" edge="1" parent="1" source="CQjiUJkjbMMS3iOZPv2z-11" target="CQjiUJkjbMMS3iOZPv2z-12">
          <mxGeometry relative="1" as="geometry" />
        </mxCell>
        <mxCell id="CQjiUJkjbMMS3iOZPv2z-11" value="Input:&lt;div&gt;num&lt;/div&gt;" style="shape=parallelogram;perimeter=parallelogramPerimeter;whiteSpace=wrap;html=1;fixedSize=1;" vertex="1" parent="1">
          <mxGeometry x="490" y="280" width="120" height="60" as="geometry" />
        </mxCell>
        <mxCell id="CQjiUJkjbMMS3iOZPv2z-12" value="append num to e" style="rounded=0;whiteSpace=wrap;html=1;" vertex="1" parent="1">
          <mxGeometry x="490" y="370" width="120" height="60" as="geometry" />
        </mxCell>
        <mxCell id="CQjiUJkjbMMS3iOZPv2z-13" value="Y" style="text;strokeColor=none;align=center;fillColor=none;html=1;verticalAlign=middle;whiteSpace=wrap;rounded=0;" vertex="1" parent="1">
          <mxGeometry x="450" y="280" width="60" height="30" as="geometry" />
        </mxCell>
        <mxCell id="CQjiUJkjbMMS3iOZPv2z-14" value="" style="endArrow=classic;html=1;rounded=0;exitX=0;exitY=0.5;exitDx=0;exitDy=0;" edge="1" parent="1" source="CQjiUJkjbMMS3iOZPv2z-12">
          <mxGeometry width="50" height="50" relative="1" as="geometry">
            <mxPoint x="425" y="440" as="sourcePoint" />
            <mxPoint x="425" y="350" as="targetPoint" />
            <Array as="points">
              <mxPoint x="425" y="400" />
            </Array>
          </mxGeometry>
        </mxCell>
        <mxCell id="CQjiUJkjbMMS3iOZPv2z-15" value="N" style="text;strokeColor=none;align=center;fillColor=none;html=1;verticalAlign=middle;whiteSpace=wrap;rounded=0;" vertex="1" parent="1">
          <mxGeometry x="340" y="270" width="60" height="30" as="geometry" />
        </mxCell>
        <mxCell id="CQjiUJkjbMMS3iOZPv2z-18" value="" style="edgeStyle=orthogonalEdgeStyle;rounded=0;orthogonalLoop=1;jettySize=auto;html=1;" edge="1" parent="1" source="CQjiUJkjbMMS3iOZPv2z-16" target="CQjiUJkjbMMS3iOZPv2z-17">
          <mxGeometry relative="1" as="geometry" />
        </mxCell>
        <mxCell id="CQjiUJkjbMMS3iOZPv2z-38" value="" style="edgeStyle=orthogonalEdgeStyle;rounded=0;orthogonalLoop=1;jettySize=auto;html=1;" edge="1" parent="1" source="CQjiUJkjbMMS3iOZPv2z-16" target="CQjiUJkjbMMS3iOZPv2z-37">
          <mxGeometry relative="1" as="geometry" />
        </mxCell>
        <mxCell id="CQjiUJkjbMMS3iOZPv2z-16" value="if num in freq" style="rhombus;whiteSpace=wrap;html=1;" vertex="1" parent="1">
          <mxGeometry x="130" y="270" width="80" height="80" as="geometry" />
        </mxCell>
        <mxCell id="CQjiUJkjbMMS3iOZPv2z-48" style="edgeStyle=orthogonalEdgeStyle;rounded=0;orthogonalLoop=1;jettySize=auto;html=1;entryX=0.5;entryY=0;entryDx=0;entryDy=0;" edge="1" parent="1" source="CQjiUJkjbMMS3iOZPv2z-17" target="CQjiUJkjbMMS3iOZPv2z-40">
          <mxGeometry relative="1" as="geometry">
            <Array as="points">
              <mxPoint x="30" y="130" />
              <mxPoint x="300" y="130" />
            </Array>
          </mxGeometry>
        </mxCell>
        <mxCell id="CQjiUJkjbMMS3iOZPv2z-17" value="freq[num] += 1" style="rounded=0;whiteSpace=wrap;html=1;" vertex="1" parent="1">
          <mxGeometry x="-20" y="280" width="120" height="60" as="geometry" />
        </mxCell>
        <mxCell id="CQjiUJkjbMMS3iOZPv2z-34" value="Y" style="text;strokeColor=none;align=center;fillColor=none;html=1;verticalAlign=middle;whiteSpace=wrap;rounded=0;" vertex="1" parent="1">
          <mxGeometry x="90" y="280" width="60" height="30" as="geometry" />
        </mxCell>
        <mxCell id="CQjiUJkjbMMS3iOZPv2z-47" style="edgeStyle=orthogonalEdgeStyle;rounded=0;orthogonalLoop=1;jettySize=auto;html=1;entryX=0.5;entryY=0;entryDx=0;entryDy=0;" edge="1" parent="1" source="CQjiUJkjbMMS3iOZPv2z-37" target="CQjiUJkjbMMS3iOZPv2z-40">
          <mxGeometry relative="1" as="geometry" />
        </mxCell>
        <mxCell id="CQjiUJkjbMMS3iOZPv2z-37" value="freq[num] = 1" style="rounded=0;whiteSpace=wrap;html=1;" vertex="1" parent="1">
          <mxGeometry x="110" y="160" width="120" height="60" as="geometry" />
        </mxCell>
        <mxCell id="CQjiUJkjbMMS3iOZPv2z-39" value="N" style="text;strokeColor=none;align=center;fillColor=none;html=1;verticalAlign=middle;whiteSpace=wrap;rounded=0;" vertex="1" parent="1">
          <mxGeometry x="150" y="230" width="60" height="30" as="geometry" />
        </mxCell>
        <mxCell id="CQjiUJkjbMMS3iOZPv2z-50" value="" style="edgeStyle=orthogonalEdgeStyle;rounded=0;orthogonalLoop=1;jettySize=auto;html=1;" edge="1" parent="1" source="CQjiUJkjbMMS3iOZPv2z-40">
          <mxGeometry relative="1" as="geometry">
            <mxPoint x="300" y="400" as="targetPoint" />
          </mxGeometry>
        </mxCell>
        <mxCell id="CQjiUJkjbMMS3iOZPv2z-40" value="num in len(e)" style="rhombus;whiteSpace=wrap;html=1;" vertex="1" parent="1">
          <mxGeometry x="260" y="270" width="80" height="80" as="geometry" />
        </mxCell>
        <mxCell id="CQjiUJkjbMMS3iOZPv2z-45" value="" style="endArrow=classic;html=1;rounded=0;entryX=1;entryY=0.5;entryDx=0;entryDy=0;" edge="1" parent="1" target="CQjiUJkjbMMS3iOZPv2z-16">
          <mxGeometry width="50" height="50" relative="1" as="geometry">
            <mxPoint x="260" y="310" as="sourcePoint" />
            <mxPoint x="310" y="260" as="targetPoint" />
          </mxGeometry>
        </mxCell>
        <mxCell id="CQjiUJkjbMMS3iOZPv2z-46" value="Y" style="text;strokeColor=none;align=center;fillColor=none;html=1;verticalAlign=middle;whiteSpace=wrap;rounded=0;" vertex="1" parent="1">
          <mxGeometry x="210" y="280" width="60" height="30" as="geometry" />
        </mxCell>
        <mxCell id="CQjiUJkjbMMS3iOZPv2z-51" value="N" style="text;strokeColor=none;align=center;fillColor=none;html=1;verticalAlign=middle;whiteSpace=wrap;rounded=0;" vertex="1" parent="1">
          <mxGeometry x="290" y="360" width="60" height="30" as="geometry" />
        </mxCell>
        <mxCell id="CQjiUJkjbMMS3iOZPv2z-54" value="" style="edgeStyle=orthogonalEdgeStyle;rounded=0;orthogonalLoop=1;jettySize=auto;html=1;" edge="1" parent="1" source="CQjiUJkjbMMS3iOZPv2z-52" target="CQjiUJkjbMMS3iOZPv2z-53">
          <mxGeometry relative="1" as="geometry" />
        </mxCell>
        <mxCell id="CQjiUJkjbMMS3iOZPv2z-52" value="if num in freq &amp;gt; 1" style="rhombus;whiteSpace=wrap;html=1;" vertex="1" parent="1">
          <mxGeometry x="260" y="400" width="80" height="80" as="geometry" />
        </mxCell>
        <mxCell id="CQjiUJkjbMMS3iOZPv2z-53" value="e_dup.append(num)" style="rounded=0;whiteSpace=wrap;html=1;" vertex="1" parent="1">
          <mxGeometry x="240" y="510" width="120" height="60" as="geometry" />
        </mxCell>
        <mxCell id="CQjiUJkjbMMS3iOZPv2z-55" value="Y" style="text;strokeColor=none;align=center;fillColor=none;html=1;verticalAlign=middle;whiteSpace=wrap;rounded=0;" vertex="1" parent="1">
          <mxGeometry x="260" y="480" width="60" height="30" as="geometry" />
        </mxCell>
      </root>
    </mxGraphModel>
  </diagram>
</mxfile>
